<?xml version="1.0" encoding="UTF-8"?><svg id="Capa_1" xmlns="http://www.w3.org/2000/svg" viewBox="0 0 476.28 107"><defs><style>.cls-1{fill:none;stroke:#1d1d1b;stroke-width:11.9px;}.cls-2{fill:#1d1d1b;}</style></defs><g><path class="cls-2" d="m2.95,41.96c1.96-3.56,4.7-6.33,8.22-8.32,3.51-1.99,7.5-2.98,11.95-2.98,5.46,0,10.13,1.44,14.02,4.32,3.89,2.88,6.48,6.81,7.79,11.79h-12.31c-.92-1.92-2.22-3.38-3.9-4.39-1.68-1-3.59-1.51-5.73-1.51-3.45,0-6.24,1.2-8.38,3.6-2.14,2.4-3.21,5.61-3.21,9.63s1.07,7.23,3.21,9.63c2.14,2.4,4.93,3.6,8.38,3.6,2.14,0,4.05-.5,5.73-1.51,1.68-1,2.98-2.47,3.9-4.39h12.31c-1.31,4.98-3.91,8.9-7.79,11.76-3.89,2.86-8.56,4.29-14.02,4.29-4.45,0-8.44-.99-11.95-2.98-3.52-1.99-6.25-4.75-8.22-8.29-1.96-3.54-2.95-7.58-2.95-12.12s.98-8.59,2.95-12.15Z"/><path class="cls-2" d="m62.81,31.18v27.51c0,2.75.68,4.87,2.03,6.35,1.35,1.49,3.34,2.23,5.96,2.23s4.63-.74,6.03-2.23c1.4-1.48,2.1-3.6,2.1-6.35v-27.51h11.2v27.44c0,4.1-.87,7.58-2.62,10.41-1.75,2.84-4.09,4.98-7.04,6.42-2.95,1.44-6.23,2.16-9.86,2.16s-6.87-.71-9.73-2.13c-2.86-1.42-5.12-3.56-6.78-6.42-1.66-2.86-2.49-6.34-2.49-10.45v-27.44h11.2Z"/><path class="cls-2" d="m126.6,69.04h-17.16l-2.75,8.12h-11.72l16.64-45.98h12.97l16.64,45.98h-11.85l-2.75-8.12Zm-.92-47.09l-15.78,6.62v-7.73l15.78-7.6v8.71Zm-1.96,38.45l-5.7-16.83-5.63,16.83h11.33Z"/><path class="cls-2" d="m187.38,77.16h-11.2l-18.73-28.36v28.36h-11.2V31.18h11.2l18.73,28.49v-28.49h11.2v45.98Z"/><path class="cls-2" d="m225.43,34.06c3.62,1.92,6.43,4.62,8.42,8.09,1.99,3.47,2.98,7.48,2.98,12.02s-.99,8.49-2.98,11.99c-1.99,3.49-4.8,6.2-8.45,8.12-3.65,1.92-7.87,2.88-12.67,2.88h-17.22V31.18h17.22c4.85,0,9.08.96,12.71,2.88Zm-3.54,29.93c2.36-2.31,3.54-5.59,3.54-9.82s-1.18-7.53-3.54-9.89c-2.36-2.36-5.66-3.54-9.89-3.54h-5.31v26.72h5.31c4.23,0,7.53-1.16,9.89-3.47Z"/><path class="cls-2" d="m252.97,74.61c-3.6-2.01-6.46-4.81-8.58-8.42-2.12-3.6-3.18-7.65-3.18-12.15s1.06-8.54,3.18-12.12c2.12-3.58,4.98-6.37,8.58-8.38,3.6-2.01,7.56-3.01,11.89-3.01s8.29,1.01,11.89,3.01c3.6,2.01,6.44,4.8,8.51,8.38,2.07,3.58,3.11,7.62,3.11,12.12s-1.05,8.55-3.14,12.15-4.94,6.41-8.51,8.42c-3.58,2.01-7.53,3.01-11.86,3.01s-8.28-1-11.89-3.01Zm20.7-10.87c2.2-2.44,3.31-5.68,3.31-9.69s-1.1-7.3-3.31-9.73c-2.21-2.42-5.14-3.64-8.81-3.64s-6.67,1.2-8.87,3.6c-2.21,2.4-3.31,5.66-3.31,9.76s1.1,7.3,3.31,9.73c2.2,2.42,5.16,3.63,8.87,3.63s6.6-1.22,8.81-3.67Z"/><path class="cls-2" d="m305.8,68.52h14.67v8.65h-25.87V31.18h11.2v37.33Z"/><path class="cls-2" d="m337.04,31.18v45.98h-11.2V31.18h11.2Z"/><path class="cls-2" d="m379.41,57.54c1.61,2.07,2.42,4.44,2.42,7.11,0,3.84-1.34,6.89-4.03,9.14-2.69,2.25-6.43,3.37-11.23,3.37h-21.42V31.18h20.7c4.67,0,8.33,1.07,10.97,3.21,2.64,2.14,3.96,5.04,3.96,8.71,0,2.71-.71,4.96-2.13,6.75-1.42,1.79-3.31,3.04-5.67,3.73,2.66.57,4.8,1.89,6.42,3.96Zm-23.06-7.76h7.34c1.83,0,3.24-.4,4.22-1.21.98-.81,1.47-2,1.47-3.57s-.49-2.77-1.47-3.6c-.98-.83-2.39-1.24-4.22-1.24h-7.34v9.63Zm12.61,17.06c1.03-.85,1.54-2.08,1.54-3.7s-.54-2.88-1.61-3.8c-1.07-.92-2.54-1.38-4.42-1.38h-8.12v10.15h8.25c1.88,0,3.33-.43,4.36-1.28Z"/><path class="cls-2" d="m411.77,77.16l-9.56-17.36h-2.68v17.36h-11.2V31.18h18.8c3.62,0,6.71.63,9.27,1.9,2.55,1.27,4.46,3,5.73,5.21,1.27,2.21,1.9,4.66,1.9,7.37,0,3.06-.86,5.79-2.59,8.19-1.72,2.4-4.27,4.1-7.63,5.11l10.61,18.21h-12.64Zm-12.25-25.28h6.94c2.05,0,3.59-.5,4.62-1.51,1.03-1,1.54-2.42,1.54-4.26s-.51-3.12-1.54-4.13c-1.03-1-2.56-1.51-4.62-1.51h-6.94v11.4Z"/><path class="cls-2" d="m440.88,74.61c-3.6-2.01-6.46-4.81-8.58-8.42-2.12-3.6-3.18-7.65-3.18-12.15s1.06-8.54,3.18-12.12c2.12-3.58,4.98-6.37,8.58-8.38,3.6-2.01,7.56-3.01,11.89-3.01s8.29,1.01,11.89,3.01c3.6,2.01,6.44,4.8,8.51,8.38,2.07,3.58,3.11,7.62,3.11,12.12s-1.05,8.55-3.14,12.15-4.94,6.41-8.51,8.42c-3.58,2.01-7.53,3.01-11.86,3.01s-8.28-1-11.89-3.01Zm20.7-10.87c2.2-2.44,3.31-5.68,3.31-9.69s-1.1-7.3-3.31-9.73c-2.21-2.42-5.14-3.64-8.81-3.64s-6.67,1.2-8.87,3.6c-2.21,2.4-3.31,5.66-3.31,9.76s1.1,7.3,3.31,9.73c2.2,2.42,5.16,3.63,8.87,3.63s6.6-1.22,8.81-3.67Z"/></g><line class="cls-1" x1="297.47" y1="5.95" x2="459.01" y2="5.95"/><line class="cls-1" x1="453.08" y1="5.95" x2="453.08" y2="31.59"/><line class="cls-1" x1="21.53" y1="75.41" x2="21.53" y2="101.05"/><line class="cls-1" x1="15.57" y1="101.05" x2="284.14" y2="101.05"/></svg>